<svg width="190" height="190" viewBox="0 0 190 190" fill="none" xmlns="http://www.w3.org/2000/svg">
<path opacity="0.7" d="M25.8136 63.4942C25.8136 63.4942 15.2192 90.8542 30.1076 118.404C44.996 145.954 75.662 160.508 100.206 172.953C124.75 185.398 150.237 179.337 162.348 158.954C174.458 138.571 157.848 124.021 157.826 94.9544C157.803 65.8882 162.177 58.1932 146.426 33.6376C130.675 9.08202 92.0628 3.64422 62.8636 21.8576C33.6644 40.071 25.8136 63.4942 25.8136 63.4942Z" fill="white"/>
<path d="M89.3456 13.5736C136.466 9.39364 136.561 35.967 157.799 60.743C179.037 85.519 183.578 96.748 175.56 125.309C167.542 153.87 140.6 176.255 107.213 163.571C73.8264 150.887 54.72 163.066 33.6718 151.791C12.6236 140.516 4.79179 118.765 20.2122 93.1152C35.6326 67.4652 31.2284 18.7492 89.3456 13.5736Z" fill="#071C4D"/>
<path opacity="0.7" d="M89.3456 13.5736C136.466 9.39364 136.561 35.967 157.799 60.743C179.037 85.519 183.578 96.748 175.56 125.309C167.542 153.87 140.6 176.255 107.213 163.571C73.8264 150.887 54.72 163.066 33.6718 151.791C12.6236 140.516 4.79179 118.765 20.2122 93.1152C35.6326 67.4652 31.2284 18.7492 89.3456 13.5736Z" fill="white"/>
<path d="M120.724 24.9453L46.6592 33.1876L58.117 136.148L132.182 127.905L120.724 24.9453Z" fill="white" stroke="#263238" stroke-linecap="round" stroke-linejoin="round"/>
<path d="M120.723 24.9458L46.6587 33.188L48.244 47.4337L122.309 39.1914L120.723 24.9458Z" fill="#BFBFBF" stroke="#263238" stroke-linecap="round" stroke-linejoin="round"/>
<path d="M100.145 31.5096L68.1718 35.0664C68.0232 35.0738 67.8777 35.1114 67.7441 35.177C67.6106 35.2425 67.4918 35.3346 67.395 35.4475C67.2983 35.5605 67.2255 35.6921 67.1813 35.8341C67.1371 35.9761 67.1223 36.1257 67.1378 36.2736C67.1533 36.4216 67.1988 36.5648 67.2716 36.6946C67.3443 36.8243 67.4427 36.9379 67.5608 37.0283C67.679 37.1188 67.8143 37.1842 67.9585 37.2206C68.1027 37.257 68.2529 37.2636 68.3998 37.24L100.373 33.6832C100.653 33.6409 100.905 33.4919 101.077 33.2675C101.25 33.043 101.328 32.7606 101.297 32.4794C101.265 32.1983 101.126 31.9402 100.909 31.7594C100.691 31.5786 100.412 31.489 100.13 31.5096H100.145Z" fill="white"/>
<path d="M92.6474 36.86L76.6646 38.6384C76.5932 38.6455 76.524 38.6667 76.4609 38.7009C76.3978 38.735 76.3422 38.7814 76.2972 38.8373C76.2523 38.8932 76.219 38.9575 76.1992 39.0265C76.1794 39.0954 76.1735 39.1676 76.182 39.2388C76.1973 39.3829 76.2691 39.5149 76.3816 39.6061C76.4942 39.6973 76.6383 39.7401 76.7824 39.7252L92.769 37.9468C92.9088 37.9257 93.0351 37.8512 93.1212 37.739C93.2074 37.6267 93.2467 37.4855 93.2309 37.3449C93.2152 37.2044 93.1457 37.0753 93.0368 36.9849C92.928 36.8945 92.7885 36.8497 92.6474 36.86Z" fill="white"/>
<path opacity="0.3" d="M104.595 49.1796L62.7 53.8384C62.5927 53.8505 62.4946 53.9047 62.4272 53.9891C62.3599 54.0736 62.3288 54.1813 62.3409 54.2887C62.353 54.396 62.4073 54.4941 62.4917 54.5615C62.5762 54.6288 62.6839 54.6599 62.7912 54.6478L104.675 49.989C104.782 49.9769 104.88 49.9226 104.948 49.8382C105.015 49.7537 105.046 49.646 105.034 49.5387C105.022 49.4313 104.968 49.3332 104.883 49.2659C104.799 49.1985 104.691 49.1675 104.584 49.1796H104.595Z" fill="black"/>
<path opacity="0.3" d="M104.918 52.0866L56.7489 57.4446C56.6415 57.4567 56.5434 57.5109 56.4761 57.5953C56.4087 57.6798 56.3777 57.7875 56.3898 57.8949C56.4019 58.0022 56.4561 58.1003 56.5405 58.1677C56.625 58.235 56.7327 58.2661 56.8401 58.254L105.009 52.896C105.064 52.8927 105.117 52.8783 105.166 52.8537C105.216 52.8291 105.259 52.7949 105.295 52.753C105.33 52.7111 105.357 52.6624 105.373 52.6099C105.389 52.5574 105.395 52.5022 105.389 52.4476C105.383 52.3924 105.366 52.339 105.338 52.2907C105.311 52.2423 105.275 52.2 105.23 52.1663C105.186 52.1325 105.136 52.1081 105.082 52.0944C105.028 52.0807 104.972 52.078 104.918 52.0866Z" fill="black"/>
<path opacity="0.3" d="M92.6705 56.392L57.0721 60.3516C56.9648 60.3637 56.8666 60.4179 56.7993 60.5023C56.732 60.5868 56.7009 60.6945 56.713 60.8019C56.7251 60.9092 56.7793 61.0073 56.8638 61.0747C56.9482 61.142 57.056 61.1731 57.1633 61.161L92.7579 57.2014C92.8127 57.1981 92.8663 57.1837 92.9155 57.1591C92.9646 57.1346 93.0082 57.1003 93.0437 57.0584C93.0792 57.0165 93.1059 56.9678 93.1221 56.9153C93.1383 56.8628 93.1437 56.8076 93.1379 56.753C93.1319 56.6982 93.1148 56.6452 93.0878 56.5971C93.0609 56.5491 93.0245 56.5069 92.9808 56.4732C92.9372 56.4395 92.8873 56.415 92.8339 56.401C92.7806 56.3871 92.725 56.384 92.6705 56.392Z" fill="black"/>
<path opacity="0.3" d="M115.217 47.6355L110.968 48.1084C110.397 48.172 109.985 48.6868 110.049 49.2583L110.522 53.5071C110.585 54.0786 111.1 54.4903 111.672 54.4267L115.92 53.9539C116.492 53.8903 116.904 53.3755 116.84 52.8039L116.367 48.5552C116.304 47.9837 115.789 47.5719 115.217 47.6355Z" stroke="#263238" stroke-linecap="round" stroke-linejoin="round"/>
<path d="M111.724 50.901L113.122 52.2196L114.961 49.4038" stroke="#071C4D" stroke-width="3" stroke-linecap="round" stroke-linejoin="round"/>
<path opacity="0.3" d="M106.126 62.9508L64.2425 67.6096C64.1352 67.6217 64.0371 67.6759 63.9697 67.7604C63.9024 67.8448 63.8713 67.9526 63.8834 68.0599C63.8955 68.1672 63.9497 68.2654 64.0342 68.3327C64.1186 68.4001 64.2264 68.4311 64.3337 68.419L106.217 63.7602C106.27 63.7542 106.322 63.7378 106.369 63.7119C106.416 63.6861 106.457 63.6512 106.49 63.6094C106.523 63.5676 106.548 63.5196 106.563 63.4682C106.578 63.4169 106.582 63.363 106.576 63.3099C106.57 63.2568 106.554 63.2053 106.528 63.1585C106.502 63.1117 106.467 63.0704 106.426 63.0371C106.384 63.0037 106.336 62.979 106.284 62.9642C106.233 62.9494 106.179 62.9448 106.126 62.9508Z" fill="black"/>
<path opacity="0.3" d="M106.449 65.8578L58.2806 71.2158C58.2275 71.2218 58.176 71.2382 58.1292 71.264C58.0824 71.2899 58.0411 71.3247 58.0078 71.3666C57.9745 71.4084 57.9497 71.4563 57.9349 71.5077C57.9201 71.5591 57.9155 71.6129 57.9215 71.6661C57.9275 71.7192 57.9439 71.7707 57.9698 71.8175C57.9956 71.8643 58.0305 71.9055 58.0723 71.9389C58.1141 71.9722 58.1621 71.997 58.2135 72.0118C58.2649 72.0266 58.3187 72.0312 58.3718 72.0252L106.541 66.6672C106.648 66.6551 106.746 66.6009 106.813 66.5164C106.881 66.432 106.912 66.3242 106.9 66.2169C106.888 66.1096 106.833 66.0114 106.749 65.9441C106.664 65.8767 106.557 65.8457 106.449 65.8578Z" fill="black"/>
<path opacity="0.3" d="M94.2018 70.1632L58.6034 74.1228C58.496 74.1349 58.3979 74.1892 58.3306 74.2736C58.2632 74.358 58.2322 74.4658 58.2443 74.5731C58.2564 74.6805 58.3106 74.7786 58.395 74.8459C58.4795 74.9133 58.5872 74.9443 58.6946 74.9322L94.2892 70.9726C94.344 70.9693 94.3976 70.9549 94.4467 70.9304C94.4958 70.9058 94.5395 70.8715 94.575 70.8296C94.6105 70.7877 94.6372 70.739 94.6533 70.6866C94.6695 70.6341 94.6749 70.5788 94.6692 70.5242C94.6631 70.4694 94.6461 70.4164 94.6191 70.3684C94.5921 70.3203 94.5557 70.2782 94.5121 70.2445C94.4685 70.2108 94.4185 70.1862 94.3652 70.1723C94.3119 70.1583 94.2563 70.1552 94.2018 70.1632Z" fill="black"/>
<path opacity="0.3" d="M116.749 61.4037L112.501 61.8765C111.929 61.9401 111.517 62.4549 111.581 63.0265L112.054 67.2752C112.117 67.8467 112.632 68.2585 113.204 68.1949L117.453 67.7221C118.024 67.6585 118.436 67.1436 118.372 66.5721L117.899 62.3233C117.836 61.7518 117.321 61.3401 116.749 61.4037Z" stroke="#263238" stroke-linecap="round" stroke-linejoin="round"/>
<path d="M113.259 64.6722L114.653 65.9908L116.493 63.175" stroke="#071C4D" stroke-width="3" stroke-linecap="round" stroke-linejoin="round"/>
<path opacity="0.3" d="M107.658 76.722L65.774 81.3808C65.6735 81.4001 65.5839 81.4567 65.5233 81.5392C65.4627 81.6217 65.4354 81.724 65.4469 81.8258C65.4584 81.9275 65.5079 82.0211 65.5854 82.088C65.663 82.1548 65.7629 82.1899 65.8652 82.1864L107.749 77.52C107.802 77.514 107.853 77.4976 107.9 77.4717C107.947 77.4458 107.988 77.411 108.022 77.3692C108.055 77.3274 108.08 77.2794 108.095 77.228C108.109 77.1766 108.114 77.1228 108.108 77.0697C108.102 77.0165 108.085 76.9651 108.06 76.9183C108.034 76.8715 107.999 76.8302 107.957 76.7969C107.915 76.7635 107.867 76.7387 107.816 76.7239C107.765 76.7091 107.711 76.7046 107.658 76.7106V76.722Z" fill="black"/>
<path opacity="0.3" d="M107.984 79.629L59.8117 84.987C59.7584 84.9921 59.7068 85.0079 59.6598 85.0335C59.6128 85.059 59.5714 85.0937 59.5381 85.1355C59.5048 85.1773 59.4802 85.2254 59.4658 85.2769C59.4515 85.3285 59.4476 85.3823 59.4545 85.4354C59.4602 85.4885 59.4763 85.5401 59.5019 85.587C59.5275 85.6339 59.5621 85.6754 59.6038 85.7089C59.6454 85.7424 59.6933 85.7674 59.7446 85.7824C59.7959 85.7974 59.8497 85.8022 59.9029 85.7964L108.072 80.4384C108.127 80.4346 108.18 80.4198 108.229 80.3948C108.279 80.3698 108.322 80.3352 108.358 80.293C108.393 80.2508 108.42 80.2018 108.436 80.1491C108.452 80.0964 108.457 80.041 108.452 79.9862C108.446 79.9315 108.429 79.8786 108.402 79.8307C108.375 79.7829 108.338 79.741 108.294 79.7076C108.251 79.6742 108.201 79.65 108.147 79.6365C108.094 79.623 108.039 79.6204 107.984 79.629Z" fill="black"/>
<path opacity="0.3" d="M95.7335 83.9344L60.1351 87.894C60.0278 87.9061 59.9296 87.9603 59.8623 88.0447C59.7949 88.1292 59.7639 88.2369 59.776 88.3443C59.7881 88.4516 59.8423 88.5497 59.9268 88.6171C60.0112 88.6844 60.119 88.7155 60.2263 88.7034L95.8209 84.74C95.9282 84.7284 96.0266 84.6746 96.0943 84.5905C96.162 84.5065 96.1935 84.3989 96.1819 84.2916C96.1703 84.1842 96.1166 84.0859 96.0325 84.0182C95.9484 83.9505 95.8408 83.919 95.7335 83.9306V83.9344Z" fill="black"/>
<path opacity="0.3" d="M118.282 75.1718L114.033 75.6447C113.462 75.7083 113.05 76.2231 113.114 76.7946L113.587 81.0434C113.65 81.6149 114.165 82.0267 114.736 81.9631L118.985 81.4902C119.557 81.4266 119.969 80.9118 119.905 80.3403L119.432 76.0915C119.368 75.52 118.854 75.1082 118.282 75.1718Z" stroke="#263238" stroke-linecap="round" stroke-linejoin="round"/>
<path d="M114.79 78.4434L116.185 79.762L118.028 76.9424" stroke="#071C4D" stroke-width="3" stroke-linecap="round" stroke-linejoin="round"/>
<path opacity="0.3" d="M109.189 90.4932L67.3052 95.152C67.2047 95.1714 67.1152 95.228 67.0546 95.3104C66.9939 95.3929 66.9667 95.4953 66.9782 95.597C66.9897 95.6987 67.0392 95.7923 67.1167 95.8592C67.1942 95.926 67.2941 95.9612 67.3964 95.9576L109.28 91.2988C109.336 91.2968 109.391 91.2833 109.442 91.2591C109.492 91.2348 109.537 91.2004 109.574 91.1579C109.61 91.1155 109.638 91.0659 109.654 91.0124C109.671 90.9588 109.676 90.9024 109.67 90.8467C109.663 90.791 109.646 90.7372 109.618 90.6887C109.59 90.6402 109.552 90.598 109.507 90.5648C109.461 90.5316 109.41 90.5081 109.355 90.4958C109.3 90.4835 109.244 90.4826 109.189 90.4932Z" fill="black"/>
<path opacity="0.3" d="M109.516 93.4002L61.3434 98.7582C61.2902 98.7633 61.2385 98.7791 61.1915 98.8046C61.1445 98.8302 61.1032 98.8649 61.0698 98.9067C61.0365 98.9485 61.0119 98.9966 60.9976 99.0481C60.9832 99.0997 60.9793 99.1535 60.9862 99.2066C60.9919 99.2597 61.008 99.3113 61.0336 99.3582C61.0593 99.4051 61.0939 99.4465 61.1355 99.4801C61.1772 99.5136 61.225 99.5386 61.2764 99.5536C61.3277 99.5686 61.3815 99.5734 61.4346 99.5676L109.603 94.2096C109.711 94.1971 109.81 94.1426 109.877 94.0579C109.945 93.9732 109.976 93.8651 109.964 93.7574C109.952 93.6507 109.898 93.5532 109.814 93.4863C109.73 93.4194 109.623 93.3884 109.516 93.4002Z" fill="black"/>
<path opacity="0.3" d="M97.2797 97.7056L61.6813 101.665C61.6281 101.67 61.5764 101.686 61.5294 101.712C61.4824 101.737 61.441 101.772 61.4077 101.814C61.3744 101.856 61.3498 101.904 61.3355 101.955C61.3211 102.007 61.3172 102.061 61.3241 102.114C61.3298 102.167 61.3459 102.218 61.3715 102.265C61.3971 102.312 61.4318 102.354 61.4734 102.387C61.5151 102.421 61.5629 102.446 61.6143 102.461C61.6656 102.476 61.7193 102.48 61.7725 102.475L97.3671 98.515C97.4203 98.5093 97.4718 98.4932 97.5187 98.4676C97.5657 98.4419 97.6071 98.4073 97.6406 98.3657C97.6742 98.324 97.6991 98.2761 97.7142 98.2248C97.7292 98.1735 97.7339 98.1197 97.7281 98.0666C97.7229 98.0132 97.7071 97.9614 97.6817 97.9142C97.6562 97.8671 97.6216 97.8254 97.5798 97.7918C97.538 97.7582 97.49 97.7332 97.4384 97.7184C97.3869 97.7036 97.333 97.6992 97.2797 97.7056Z" fill="black"/>
<path opacity="0.3" d="M119.815 88.9438L115.566 89.4166C114.995 89.4802 114.583 89.9951 114.646 90.5666L115.119 94.8154C115.183 95.3869 115.698 95.7986 116.269 95.735L120.518 95.2622C121.089 95.1986 121.501 94.6838 121.438 94.1123L120.965 89.8635C120.901 89.292 120.386 88.8802 119.815 88.9438Z" stroke="#263238" stroke-linecap="round" stroke-linejoin="round"/>
<path d="M116.322 92.2108L117.716 93.5294L119.559 90.7136" stroke="#071C4D" stroke-width="3" stroke-linecap="round" stroke-linejoin="round"/>
<path opacity="0.3" d="M110.724 104.261L68.8404 108.919C68.7873 108.925 68.7358 108.941 68.6889 108.967C68.642 108.993 68.6006 109.027 68.567 109.069C68.5335 109.11 68.5085 109.158 68.4935 109.21C68.4784 109.261 68.4737 109.315 68.4794 109.368C68.4851 109.421 68.5013 109.472 68.5269 109.519C68.5526 109.566 68.5872 109.608 68.6288 109.641C68.6705 109.675 68.7183 109.7 68.7696 109.715C68.8209 109.73 68.8747 109.735 68.9278 109.729L110.811 105.07C110.865 105.064 110.916 105.048 110.963 105.023C111.01 104.997 111.051 104.962 111.085 104.921C111.118 104.879 111.143 104.831 111.158 104.78C111.173 104.729 111.178 104.675 111.172 104.622C111.16 104.515 111.106 104.417 111.022 104.349C110.938 104.282 110.831 104.25 110.724 104.261Z" fill="black"/>
<path opacity="0.3" d="M111.047 107.16L62.8748 112.518C62.8188 112.52 62.7638 112.534 62.7132 112.558C62.6627 112.582 62.6177 112.616 62.5811 112.659C62.5445 112.701 62.517 112.751 62.5005 112.804C62.484 112.858 62.4787 112.914 62.485 112.97C62.4913 113.026 62.5091 113.08 62.5372 113.128C62.5652 113.177 62.6031 113.219 62.6482 113.252C62.6934 113.285 62.7449 113.309 62.7996 113.321C62.8543 113.333 62.9109 113.334 62.966 113.324L111.135 107.966C111.191 107.964 111.246 107.951 111.297 107.927C111.348 107.904 111.394 107.869 111.431 107.827C111.468 107.785 111.496 107.735 111.513 107.681C111.53 107.628 111.535 107.571 111.529 107.515C111.523 107.459 111.506 107.405 111.478 107.356C111.449 107.308 111.412 107.265 111.366 107.232C111.321 107.198 111.269 107.175 111.214 107.162C111.159 107.15 111.103 107.149 111.047 107.16Z" fill="black"/>
<path opacity="0.3" d="M98.7999 111.477L63.2015 115.436C63.0942 115.448 62.996 115.503 62.9287 115.587C62.8614 115.672 62.8303 115.779 62.8424 115.887C62.8545 115.994 62.9087 116.092 62.9932 116.16C63.0776 116.227 63.1854 116.258 63.2927 116.246L98.8911 112.286C98.9981 112.273 99.0956 112.218 99.1624 112.133C99.2293 112.049 99.2601 111.941 99.2483 111.834C99.2426 111.781 99.2265 111.73 99.2008 111.683C99.1752 111.636 99.1405 111.595 99.0988 111.562C99.057 111.528 99.0091 111.504 98.9578 111.489C98.9065 111.475 98.8529 111.47 98.7999 111.477Z" fill="black"/>
<path opacity="0.3" d="M121.348 102.716L117.099 103.189C116.527 103.252 116.116 103.767 116.179 104.339L116.652 108.587C116.716 109.159 117.23 109.571 117.802 109.507L122.051 109.034C122.622 108.971 123.034 108.456 122.97 107.884L122.498 103.635C122.434 103.064 121.919 102.652 121.348 102.716Z" stroke="#263238" stroke-linecap="round" stroke-linejoin="round"/>
<path d="M117.853 105.982L119.248 107.301L121.091 104.485" stroke="#071C4D" stroke-width="3" stroke-linecap="round" stroke-linejoin="round"/>
<path opacity="0.3" d="M111.891 114.76L70.0072 119.426C69.8998 119.438 69.8017 119.493 69.7344 119.577C69.667 119.662 69.636 119.769 69.6481 119.877C69.6602 119.984 69.7144 120.082 69.7988 120.15C69.8833 120.217 69.991 120.248 70.0984 120.236L111.982 115.577C112.035 115.572 112.087 115.556 112.134 115.531C112.181 115.505 112.222 115.47 112.256 115.428C112.289 115.387 112.313 115.339 112.328 115.287C112.342 115.236 112.346 115.182 112.339 115.129C112.334 115.075 112.319 115.022 112.294 114.975C112.269 114.927 112.234 114.885 112.192 114.85C112.151 114.816 112.102 114.79 112.051 114.775C111.999 114.759 111.945 114.754 111.891 114.76Z" fill="black"/>
<path opacity="0.3" d="M112.214 117.678L64.0453 123.036C63.989 123.038 63.9337 123.051 63.8827 123.075C63.8317 123.098 63.7863 123.133 63.7492 123.175C63.7121 123.217 63.6842 123.267 63.6673 123.32C63.6503 123.374 63.6447 123.431 63.6508 123.487C63.6569 123.543 63.6745 123.597 63.7025 123.646C63.7306 123.694 63.7685 123.737 63.8138 123.77C63.859 123.804 63.9108 123.827 63.9657 123.84C64.0206 123.852 64.0774 123.853 64.1327 123.842L112.305 118.484C112.406 118.465 112.495 118.408 112.556 118.326C112.617 118.243 112.644 118.141 112.632 118.039C112.621 117.937 112.571 117.844 112.494 117.777C112.416 117.71 112.316 117.675 112.214 117.678Z" fill="black"/>
<path opacity="0.3" d="M99.9629 121.98L64.3683 125.94C64.3151 125.945 64.2636 125.961 64.2167 125.987C64.1697 126.013 64.1283 126.047 64.0948 126.089C64.0612 126.131 64.0362 126.178 64.0212 126.23C64.0062 126.281 64.0015 126.335 64.0073 126.388C64.0197 126.496 64.0742 126.594 64.1589 126.662C64.2437 126.729 64.3517 126.761 64.4595 126.749L100.054 122.789C100.107 122.783 100.159 122.767 100.205 122.741C100.252 122.715 100.294 122.68 100.327 122.639C100.36 122.597 100.385 122.549 100.4 122.497C100.415 122.446 100.419 122.392 100.413 122.339C100.407 122.286 100.391 122.234 100.365 122.188C100.339 122.141 100.304 122.1 100.262 122.066C100.221 122.033 100.173 122.008 100.121 121.993C100.07 121.979 100.016 121.974 99.9629 121.98Z" fill="black"/>
<path opacity="0.3" d="M122.518 113.219L118.269 113.692C117.698 113.755 117.286 114.27 117.35 114.842L117.822 119.09C117.886 119.662 118.401 120.074 118.972 120.01L123.221 119.537C123.793 119.474 124.204 118.959 124.141 118.387L123.668 114.138C123.604 113.567 123.089 113.155 122.518 113.219Z" stroke="#263238" stroke-linecap="round" stroke-linejoin="round"/>
<path d="M119.02 116.489L120.414 117.808L122.257 114.992" stroke="#071C4D" stroke-width="3" stroke-linecap="round" stroke-linejoin="round"/>
<path d="M77.0678 87.8826C77.1044 87.4459 76.9963 87.0092 76.76 86.64L76.2926 85.8116L75.3654 86.336L75.8708 87.2252C76.1216 87.6698 76.019 87.9434 75.7074 88.1182C75.3958 88.293 75.107 88.2474 74.8562 87.8028L73.7732 85.88L72.6104 86.108L73.8492 88.293C74.4154 89.2924 75.2362 89.5774 76.1976 89.053C76.3504 88.9653 76.492 88.8594 76.6194 88.7376C76.5653 88.6124 76.5559 88.4724 76.5925 88.3411C76.6292 88.2097 76.7097 88.0948 76.8208 88.0156C76.8952 87.9581 76.9787 87.9131 77.0678 87.8826Z" fill="#071C4D"/>
<path d="M72.0136 85.0554L72.234 85.4354H73.5146L72.956 84.4474C72.7052 84.0028 72.804 83.7216 73.1156 83.5468C73.4272 83.372 73.7198 83.4252 73.9706 83.8736L74.3506 84.5386L75.274 84.0142L74.932 83.41C74.3658 82.4144 73.545 82.1256 72.5836 82.6728C72.3629 82.7918 72.1669 82.9517 72.006 83.144C72.2244 83.2142 72.4531 83.2463 72.6824 83.239L71.7704 83.581C71.7035 83.8299 71.6907 84.0902 71.7326 84.3445C71.7746 84.5988 71.8704 84.8412 72.0136 85.0554Z" fill="#071C4D"/>
<path d="M79.1162 81.0046C79.238 80.9437 79.3652 80.8941 79.4962 80.8564C79.9864 80.636 80.0966 79.9292 80.0548 79.4314L79.5494 78.8044L78.189 79.5644L79.0402 81.0616C79.0624 81.0388 79.088 81.0196 79.1162 81.0046Z" fill="#071C4D"/>
<path d="M84.9108 83.98L85.8342 83.4556L82.304 77.2312L81.4262 77.7252C81.7074 77.7936 81.9088 77.9266 81.9164 78.1318C81.6428 78.1698 81.3084 78.1318 81.012 78.185L82.7904 82.7944L80.5408 79.99C80.5469 80.0521 80.5376 80.1148 80.5138 80.1724C80.4899 80.2301 80.4522 80.281 80.404 80.3206C80.3014 80.3928 80.1532 80.3928 80.0734 80.4878C79.9936 80.5828 80.005 80.6968 79.9366 80.7804C79.8682 80.864 79.7618 80.8868 79.6782 80.9476C79.5946 81.0084 79.5034 81.1642 79.4084 81.2668C79.3626 81.315 79.305 81.3504 79.2412 81.3694L81.7416 85.7774L82.5928 85.291L80.0962 80.8906L83.3034 84.8882L84.2306 84.3638L82.3572 79.5264L84.9108 83.98Z" fill="#071C4D"/>
<path d="M87.2483 78.5613C87.3158 78.595 87.3759 78.642 87.4248 78.6995C87.4738 78.7569 87.5107 78.8236 87.5333 78.8956C87.6133 78.4261 87.5114 77.9437 87.2483 77.5467L86.7885 76.7334C86.2223 75.7378 85.4357 75.4681 84.4553 76.0229L83.0151 76.8399L86.5491 83.068L87.4649 82.5474C87.1685 82.3612 86.8379 82.2016 86.5567 82.0002C86.4247 81.916 86.3162 81.7996 86.2413 81.662C86.2058 81.5926 86.1912 81.5144 86.1993 81.4368C86.2074 81.3592 86.2378 81.2857 86.2869 81.225C86.3513 81.1708 86.4298 81.1359 86.5132 81.1244C86.5966 81.113 86.6815 81.1255 86.7581 81.1604L86.1995 80.1724L86.6631 79.9102C86.9179 79.7721 87.1397 79.5802 87.3129 79.3478C87.1191 79.04 86.7809 78.3865 87.2483 78.5613ZM86.1577 79.04L85.6941 79.3022L84.4971 77.1932L84.9607 76.931C85.2723 76.7562 85.5231 76.8019 85.7739 77.2464L86.3059 78.1813C86.5567 78.6069 86.4693 78.8462 86.1577 79.04Z" fill="#071C4D"/>
<path d="M92.488 79.6974L91.9864 78.8082L90.3752 79.7202L88.0192 75.5668L87.9128 75.6504C87.844 75.7142 87.7604 75.7599 87.6696 75.7834C87.6239 75.7937 87.5759 75.7871 87.5347 75.7647C87.4935 75.7423 87.4617 75.7058 87.4454 75.6618C87.4323 75.603 87.4323 75.542 87.4454 75.4832C87.446 75.1296 87.3342 74.785 87.1262 74.499L86.3662 74.9398L89.8964 81.1642L92.488 79.6974Z" fill="#071C4D"/>
<path d="M92.0478 77.52C92.1542 77.2426 92.4848 77.14 92.671 76.8892C92.6876 76.8635 92.7028 76.8368 92.7166 76.8094L92.3366 76.171L93.298 75.6276C93.2803 75.567 93.2491 75.5111 93.2068 75.4642C93.0688 75.3968 92.9215 75.3507 92.7698 75.3274C92.7463 75.2802 92.7345 75.228 92.7353 75.1753C92.7361 75.1225 92.7496 75.0707 92.7745 75.0242C92.7994 74.9777 92.8351 74.9379 92.8786 74.908C92.922 74.8781 92.972 74.8591 93.0244 74.8524C93.089 74.8524 93.165 74.8524 93.2144 74.822C93.249 74.7807 93.2667 74.7277 93.2638 74.6738L93.1764 74.5218L91.8312 75.2818L90.8508 73.549L92.538 72.5876L92.0326 71.6984L89.3726 73.2184L91.987 77.8278C91.9915 77.7227 92.012 77.619 92.0478 77.52Z" fill="#071C4D"/>
<path d="M95.5851 77.9418L95.0797 77.0526L93.3887 78.0102L92.8833 77.14L92.2601 77.7252L92.0435 77.9342L92.9175 79.4732L95.5851 77.9418Z" fill="#071C4D"/>
<path d="M94.3277 70.7104C94.3277 70.8434 94.2327 70.9916 94.1035 71.003C94.0378 71.0022 93.9725 70.992 93.9097 70.9726C93.7923 70.9748 93.6749 70.9633 93.5601 70.9384C93.5353 70.9282 93.5122 70.9141 93.4917 70.8966L92.3745 71.5312L92.8799 72.4242L93.9021 71.8428L96.9421 77.1628L97.9187 76.6081L94.8787 71.288L95.9047 70.7066L95.3993 69.8174L94.3505 70.4102C94.3315 70.509 94.3391 70.6116 94.3277 70.7104Z" fill="#071C4D"/>
<path d="M98.5951 74.48L99.3551 75.8214L100.381 75.24C100.405 75.1727 100.436 75.1078 100.472 75.0462C100.698 74.7161 101.002 74.4472 101.358 74.2634L101.829 73.9708L101.517 73.416L99.8263 74.3774L98.7927 72.5534L100.138 71.7934L99.6325 70.9042L98.2873 71.6642L97.3069 69.92L98.9979 68.9624L98.4925 68.0732L95.8325 69.5932L97.7515 72.979C98.2151 72.732 98.4469 73.6212 98.5951 74.48Z" fill="#071C4D"/>
<path d="M78.9148 86.7768C79.0744 86.8034 79.1694 86.963 79.2948 87.0694C79.3404 87.1114 79.3932 87.1449 79.4506 87.1682C79.5233 87.1393 79.5944 87.1063 79.6634 87.0694C80.621 86.526 80.8224 85.6596 80.26 84.6602L80.203 84.5614L78.8882 84.5272L79.3176 85.2872C79.5684 85.7318 79.4696 86.013 79.158 86.1878C78.8464 86.3626 78.5538 86.3056 78.303 85.861L76.403 82.498C76.1484 82.0534 76.251 81.776 76.5626 81.5974C76.8742 81.4188 77.163 81.4796 77.4176 81.9242L78.7058 84.2042C79.1012 84.1063 79.5068 84.0553 79.9142 84.0522L78.4284 81.434C77.866 80.4384 77.0186 80.1686 76.0572 80.712C75.0958 81.2554 74.8944 82.1256 75.4606 83.1212L77.296 86.3588C77.412 86.6084 77.5854 86.827 77.802 86.9967C78.0186 87.1664 78.2723 87.2825 78.5424 87.3354C78.5403 87.3127 78.5403 87.2898 78.5424 87.267C78.4968 87.02 78.6792 86.7312 78.9148 86.7768Z" fill="#071C4D"/>
<path d="M92.0359 68.9054L95.0189 67.2144C94.1639 67.45 93.4115 68.1644 92.5299 68.0656C92.3705 68.0237 92.203 68.0237 92.0435 68.0656C91.9439 68.1298 91.8721 68.2293 91.8425 68.3441C91.813 68.4589 91.8277 68.5806 91.8839 68.685C91.9224 68.7662 91.9738 68.8406 92.0359 68.9054Z" fill="#071C4D"/>
<path d="M84.5539 73.1501C84.5473 73.0843 84.5606 73.0182 84.5919 72.9601C84.6652 72.9856 84.7423 72.9984 84.8199 72.9981L85.8497 72.4167C86.0109 72.2343 86.1948 72.0734 86.3969 71.9379C86.5921 71.8334 86.7987 71.7518 87.0125 71.6947L87.2405 71.6263L89.1405 70.5547C89.1605 70.5158 89.1876 70.481 89.2203 70.4521C89.2497 70.4325 89.2817 70.4172 89.3153 70.4065L87.3545 69.8137L86.8263 70.1101L86.7693 70.5281L84.5083 71.7365C84.2845 71.8763 84.0352 71.9705 83.7749 72.0139C83.6777 72.0252 83.5795 72.0252 83.4823 72.0139L80.2599 73.8417C80.2855 73.9944 80.3289 74.1436 80.3891 74.2863C80.2001 74.251 80.0203 74.1773 79.8609 74.0697L79.1997 74.4497C79.6709 74.7613 80.1345 75.0805 80.5867 75.4187L84.5539 73.1501Z" fill="#071C4D"/>
<path d="M98.3479 65.3296L96.7899 64.4556L96.0527 64.8736C96.4871 65.3203 97.0482 65.6228 97.6601 65.74L98.3479 65.3296Z" fill="#071C4D"/>
<path d="M106.727 74.5294L100.845 64.1592C100.616 63.7582 100.238 63.464 99.7926 63.3408C99.3476 63.2176 98.872 63.2755 98.4696 63.5018L97.7627 63.9046L98.0326 64.1668C98.3138 64.448 98.6026 64.733 98.8648 65.0332L99.2219 64.8318C99.2715 64.8042 99.3298 64.797 99.3846 64.812C99.4393 64.8269 99.4859 64.8627 99.5146 64.9116L105.401 75.2856C105.428 75.3356 105.435 75.3943 105.419 75.4491C105.403 75.5038 105.367 75.5502 105.317 75.5782L97.3105 80.1382C98.0021 80.18 98.7014 80.0812 99.393 80.161C99.6421 80.1924 99.8894 80.2368 100.134 80.294L106.07 76.9272C106.271 76.8139 106.448 76.6617 106.591 76.4795C106.733 76.2973 106.838 76.0886 106.899 75.8656C106.96 75.6426 106.976 75.4096 106.947 75.1803C106.917 74.9509 106.843 74.7297 106.727 74.5294Z" fill="#071C4D"/>
<path d="M70.6801 87.7268L67.9137 82.84C67.8994 82.8153 67.8901 82.7881 67.8864 82.7598C67.8827 82.7315 67.8846 82.7028 67.892 82.6752C67.8994 82.6477 67.9122 82.6219 67.9296 82.5993C67.947 82.5767 67.9687 82.5578 67.9935 82.5436L75.9735 78.014C75.9469 77.9532 75.9127 77.8924 75.8899 77.8316C76.0026 77.8269 76.1154 77.8397 76.2243 77.8696L79.4505 76.0418C79.3441 76.0076 79.2415 75.9658 79.1389 75.9278L77.6189 75.3236L76.4029 76.0152L77.7253 76.8246C77.2655 76.5434 76.3269 76.5054 75.5175 76.5168L67.2601 81.2174C66.8583 81.4455 66.5634 81.8237 66.4402 82.2689C66.3169 82.7142 66.3754 83.1902 66.6027 83.5924L69.0043 87.8256C69.1145 87.7952 69.2285 87.7686 69.3387 87.7496C69.6431 87.7058 69.951 87.6905 70.2583 87.704C70.3992 87.703 70.5401 87.7106 70.6801 87.7268Z" fill="#071C4D"/>
<path d="M80.5374 89.6344C80.6727 89.7557 80.8267 89.8545 80.9934 89.927C81.1644 90.003 81.3924 90.1854 81.2594 90.307C80.6438 90.5882 79.8838 90.3792 79.2796 90.687C78.949 90.8466 78.6298 91.162 78.2764 91.067C78.7038 91.3265 79.0884 91.6509 79.4164 92.0284L94.5062 83.4708C94.5062 83.41 94.5252 83.3492 94.5366 83.2846C94.5369 83.165 94.5646 83.0471 94.6173 82.9397C94.6701 82.8324 94.7467 82.7386 94.8412 82.6653C94.9358 82.592 95.0458 82.5412 95.1629 82.5169C95.2799 82.4925 95.4011 82.4951 95.517 82.5246C95.7127 82.516 95.9086 82.5365 96.0984 82.5854L97.9794 81.5176C97.7213 81.0728 97.4155 80.6574 97.0674 80.2788L80.5374 89.6344Z" fill="#071C4D"/>
<path d="M78.0938 92.1462C77.7299 92.0282 77.3946 91.8353 77.1096 91.58L74.1 93.29C74.0756 93.3042 74.0487 93.3134 74.0207 93.3171C73.9927 93.3207 73.9642 93.3188 73.937 93.3114C73.9098 93.304 73.8843 93.2912 73.8621 93.2738C73.8398 93.2565 73.8212 93.2348 73.8074 93.2102L71.1474 88.5476C70.8925 88.4595 70.6214 88.4284 70.3532 88.4564C70.0454 88.5172 69.7756 88.8744 69.9428 89.1366C70.0999 89.1407 70.2531 89.1864 70.3867 89.2692C70.5202 89.352 70.6294 89.4689 70.7028 89.6078C70.5389 89.7382 70.3588 89.8468 70.167 89.9308L72.447 93.9626C72.5603 94.1662 72.7131 94.3452 72.8966 94.4889C73.08 94.6326 73.2903 94.7382 73.5151 94.7994C73.7399 94.8606 73.9747 94.8763 74.2057 94.8455C74.4366 94.8147 74.6591 94.738 74.86 94.62L78.8044 92.3818L78.7588 92.3552C78.5411 92.2736 78.3191 92.2039 78.0938 92.1462Z" fill="#071C4D"/>
<g opacity="0.2">
<path opacity="0.2" d="M77.0678 87.8826C77.1044 87.4459 76.9963 87.0092 76.76 86.64L76.2926 85.8116L75.3654 86.336L75.8708 87.2252C76.1216 87.6698 76.019 87.9434 75.7074 88.1182C75.3958 88.293 75.107 88.2474 74.8562 87.8028L73.7732 85.88L72.6104 86.108L73.8492 88.293C74.4154 89.2924 75.2362 89.5774 76.1976 89.053C76.3504 88.9653 76.492 88.8594 76.6194 88.7376C76.5653 88.6124 76.5559 88.4724 76.5925 88.3411C76.6292 88.2097 76.7097 88.0948 76.8208 88.0156C76.8952 87.9581 76.9787 87.9131 77.0678 87.8826Z" fill="black"/>
<path opacity="0.2" d="M72.0136 85.0554L72.234 85.4354H73.5146L72.956 84.4474C72.7052 84.0028 72.804 83.7216 73.1156 83.5468C73.4272 83.372 73.7198 83.4252 73.9706 83.8736L74.3506 84.5386L75.274 84.0142L74.932 83.41C74.3658 82.4144 73.545 82.1256 72.5836 82.6728C72.3629 82.7918 72.1669 82.9517 72.006 83.144C72.2244 83.2142 72.4531 83.2463 72.6824 83.239L71.7704 83.581C71.7035 83.8299 71.6907 84.0902 71.7326 84.3445C71.7746 84.5988 71.8704 84.8412 72.0136 85.0554Z" fill="black"/>
<path opacity="0.2" d="M79.1162 81.0046C79.238 80.9437 79.3652 80.8941 79.4962 80.8564C79.9864 80.636 80.0966 79.9292 80.0548 79.4314L79.5494 78.8044L78.189 79.5644L79.0402 81.0616C79.0624 81.0388 79.088 81.0196 79.1162 81.0046Z" fill="black"/>
<path opacity="0.2" d="M84.9108 83.98L85.8342 83.4556L82.304 77.2312L81.4262 77.7252C81.7074 77.7936 81.9088 77.9266 81.9164 78.1318C81.6428 78.1698 81.3084 78.1318 81.012 78.185L82.7904 82.7944L80.5408 79.99C80.5469 80.0521 80.5376 80.1148 80.5138 80.1724C80.4899 80.2301 80.4522 80.281 80.404 80.3206C80.3014 80.3928 80.1532 80.3928 80.0734 80.4878C79.9936 80.5828 80.005 80.6968 79.9366 80.7804C79.8682 80.864 79.7618 80.8868 79.6782 80.9476C79.5946 81.0084 79.5034 81.1642 79.4084 81.2668C79.3626 81.315 79.305 81.3504 79.2412 81.3694L81.7416 85.7774L82.5928 85.291L80.0962 80.8906L83.3034 84.8882L84.2306 84.3638L82.3572 79.5264L84.9108 83.98Z" fill="black"/>
<path opacity="0.2" d="M87.2483 78.5613C87.3158 78.595 87.3759 78.642 87.4248 78.6995C87.4738 78.7569 87.5107 78.8236 87.5333 78.8956C87.6133 78.4261 87.5114 77.9437 87.2483 77.5467L86.7885 76.7334C86.2223 75.7378 85.4357 75.4681 84.4553 76.0229L83.0151 76.8399L86.5491 83.068L87.4649 82.5474C87.1685 82.3612 86.8379 82.2016 86.5567 82.0002C86.4247 81.916 86.3162 81.7996 86.2413 81.662C86.2058 81.5926 86.1912 81.5144 86.1993 81.4368C86.2074 81.3592 86.2378 81.2857 86.2869 81.225C86.3513 81.1708 86.4298 81.1359 86.5132 81.1244C86.5966 81.113 86.6815 81.1255 86.7581 81.1604L86.1995 80.1724L86.6631 79.9102C86.9179 79.7721 87.1397 79.5802 87.3129 79.3478C87.1191 79.04 86.7809 78.3865 87.2483 78.5613ZM86.1577 79.04L85.6941 79.3022L84.4971 77.1932L84.9607 76.931C85.2723 76.7562 85.5231 76.8019 85.7739 77.2464L86.3059 78.1813C86.5567 78.6069 86.4693 78.8462 86.1577 79.04Z" fill="black"/>
<path opacity="0.2" d="M92.488 79.6974L91.9864 78.8082L90.3752 79.7202L88.0192 75.5668L87.9128 75.6504C87.844 75.7142 87.7604 75.7599 87.6696 75.7834C87.6239 75.7937 87.5759 75.7871 87.5347 75.7647C87.4935 75.7423 87.4617 75.7058 87.4454 75.6618C87.4323 75.603 87.4323 75.542 87.4454 75.4832C87.446 75.1296 87.3342 74.785 87.1262 74.499L86.3662 74.9398L89.8964 81.1642L92.488 79.6974Z" fill="black"/>
<path opacity="0.2" d="M92.0478 77.52C92.1542 77.2426 92.4848 77.14 92.671 76.8892C92.6876 76.8635 92.7028 76.8368 92.7166 76.8094L92.3366 76.171L93.298 75.6276C93.2803 75.567 93.2491 75.5111 93.2068 75.4642C93.0688 75.3968 92.9215 75.3507 92.7698 75.3274C92.7463 75.2802 92.7345 75.228 92.7353 75.1753C92.7361 75.1225 92.7496 75.0707 92.7745 75.0242C92.7994 74.9777 92.8351 74.9379 92.8786 74.908C92.922 74.8781 92.972 74.8591 93.0244 74.8524C93.089 74.8524 93.165 74.8524 93.2144 74.822C93.249 74.7807 93.2667 74.7277 93.2638 74.6738L93.1764 74.5218L91.8312 75.2818L90.8508 73.549L92.538 72.5876L92.0326 71.6984L89.3726 73.2184L91.987 77.8278C91.9915 77.7227 92.012 77.619 92.0478 77.52Z" fill="black"/>
<path opacity="0.2" d="M95.5851 77.9418L95.0797 77.0526L93.3887 78.0102L92.8833 77.14L92.2601 77.7252L92.0435 77.9342L92.9175 79.4732L95.5851 77.9418Z" fill="black"/>
<path opacity="0.2" d="M94.3277 70.7104C94.3277 70.8434 94.2327 70.9916 94.1035 71.003C94.0378 71.0022 93.9725 70.992 93.9097 70.9726C93.7923 70.9748 93.6749 70.9633 93.5601 70.9384C93.5353 70.9282 93.5122 70.9141 93.4917 70.8966L92.3745 71.5312L92.8799 72.4242L93.9021 71.8428L96.9421 77.1628L97.9187 76.6081L94.8787 71.288L95.9047 70.7066L95.3993 69.8174L94.3505 70.4102C94.3315 70.509 94.3391 70.6116 94.3277 70.7104Z" fill="black"/>
<path opacity="0.2" d="M98.5951 74.48L99.3551 75.8214L100.381 75.24C100.405 75.1727 100.436 75.1078 100.472 75.0462C100.698 74.7161 101.002 74.4472 101.358 74.2634L101.829 73.9708L101.517 73.416L99.8263 74.3774L98.7927 72.5534L100.138 71.7934L99.6325 70.9042L98.2873 71.6642L97.3069 69.92L98.9979 68.9624L98.4925 68.0732L95.8325 69.5932L97.7515 72.979C98.2151 72.732 98.4469 73.6212 98.5951 74.48Z" fill="black"/>
<path opacity="0.2" d="M78.9148 86.7768C79.0744 86.8034 79.1694 86.963 79.2948 87.0694C79.3404 87.1114 79.3932 87.1449 79.4506 87.1682C79.5233 87.1393 79.5944 87.1063 79.6634 87.0694C80.621 86.526 80.8224 85.6596 80.26 84.6602L80.203 84.5614L78.8882 84.5272L79.3176 85.2872C79.5684 85.7318 79.4696 86.013 79.158 86.1878C78.8464 86.3626 78.5538 86.3056 78.303 85.861L76.403 82.498C76.1484 82.0534 76.251 81.776 76.5626 81.5974C76.8742 81.4188 77.163 81.4796 77.4176 81.9242L78.7058 84.2042C79.1012 84.1063 79.5068 84.0553 79.9142 84.0522L78.4284 81.434C77.866 80.4384 77.0186 80.1686 76.0572 80.712C75.0958 81.2554 74.8944 82.1256 75.4606 83.1212L77.296 86.3588C77.412 86.6084 77.5854 86.827 77.802 86.9967C78.0186 87.1664 78.2723 87.2825 78.5424 87.3354C78.5403 87.3127 78.5403 87.2898 78.5424 87.267C78.4968 87.02 78.6792 86.7312 78.9148 86.7768Z" fill="black"/>
<path opacity="0.2" d="M92.0359 68.9054L95.0189 67.2144C94.1639 67.45 93.4115 68.1644 92.5299 68.0656C92.3705 68.0237 92.203 68.0237 92.0435 68.0656C91.9439 68.1298 91.8721 68.2293 91.8425 68.3441C91.813 68.4589 91.8277 68.5806 91.8839 68.685C91.9224 68.7662 91.9738 68.8406 92.0359 68.9054Z" fill="black"/>
<path opacity="0.2" d="M84.5539 73.1501C84.5473 73.0843 84.5606 73.0182 84.5919 72.9601C84.6652 72.9856 84.7423 72.9984 84.8199 72.9981L85.8497 72.4167C86.0109 72.2343 86.1948 72.0734 86.3969 71.9379C86.5921 71.8334 86.7987 71.7518 87.0125 71.6947L87.2405 71.6263L89.1405 70.5547C89.1605 70.5158 89.1876 70.481 89.2203 70.4521C89.2497 70.4325 89.2817 70.4172 89.3153 70.4065L87.3545 69.8137L86.8263 70.1101L86.7693 70.5281L84.5083 71.7365C84.2845 71.8763 84.0352 71.9705 83.7749 72.0139C83.6777 72.0252 83.5795 72.0252 83.4823 72.0139L80.2599 73.8417C80.2855 73.9944 80.3289 74.1436 80.3891 74.2863C80.2001 74.251 80.0203 74.1773 79.8609 74.0697L79.1997 74.4497C79.6709 74.7613 80.1345 75.0805 80.5867 75.4187L84.5539 73.1501Z" fill="black"/>
<path opacity="0.2" d="M98.3479 65.3296L96.7899 64.4556L96.0527 64.8736C96.4871 65.3203 97.0482 65.6228 97.6601 65.74L98.3479 65.3296Z" fill="black"/>
<path opacity="0.2" d="M106.727 74.5294L100.845 64.1592C100.616 63.7582 100.238 63.464 99.7926 63.3408C99.3476 63.2176 98.872 63.2755 98.4696 63.5018L97.7627 63.9046L98.0326 64.1668C98.3138 64.448 98.6026 64.733 98.8648 65.0332L99.2219 64.8318C99.2715 64.8042 99.3298 64.797 99.3846 64.812C99.4393 64.8269 99.4859 64.8627 99.5146 64.9116L105.401 75.2856C105.428 75.3356 105.435 75.3943 105.419 75.4491C105.403 75.5038 105.367 75.5502 105.317 75.5782L97.3105 80.1382C98.0021 80.18 98.7014 80.0812 99.393 80.161C99.6421 80.1924 99.8894 80.2368 100.134 80.294L106.07 76.9272C106.271 76.8139 106.448 76.6617 106.591 76.4795C106.733 76.2973 106.838 76.0886 106.899 75.8656C106.96 75.6426 106.976 75.4096 106.947 75.1803C106.917 74.9509 106.843 74.7297 106.727 74.5294Z" fill="black"/>
<path opacity="0.2" d="M70.6801 87.7268L67.9137 82.84C67.8994 82.8153 67.8901 82.7881 67.8864 82.7598C67.8827 82.7315 67.8846 82.7028 67.892 82.6752C67.8994 82.6477 67.9122 82.6219 67.9296 82.5993C67.947 82.5767 67.9687 82.5578 67.9935 82.5436L75.9735 78.014C75.9469 77.9532 75.9127 77.8924 75.8899 77.8316C76.0026 77.8269 76.1154 77.8397 76.2243 77.8696L79.4505 76.0418C79.3441 76.0076 79.2415 75.9658 79.1389 75.9278L77.6189 75.3236L76.4029 76.0152L77.7253 76.8246C77.2655 76.5434 76.3269 76.5054 75.5175 76.5168L67.2601 81.2174C66.8583 81.4455 66.5634 81.8237 66.4402 82.2689C66.3169 82.7142 66.3754 83.1902 66.6027 83.5924L69.0043 87.8256C69.1145 87.7952 69.2285 87.7686 69.3387 87.7496C69.6431 87.7058 69.951 87.6905 70.2583 87.704C70.3992 87.703 70.5401 87.7106 70.6801 87.7268Z" fill="black"/>
<path opacity="0.2" d="M80.5374 89.6344C80.6727 89.7557 80.8267 89.8545 80.9934 89.927C81.1644 90.003 81.3924 90.1854 81.2594 90.307C80.6438 90.5882 79.8838 90.3792 79.2796 90.687C78.949 90.8466 78.6298 91.162 78.2764 91.067C78.7038 91.3265 79.0884 91.6509 79.4164 92.0284L94.5062 83.4708C94.5062 83.41 94.5252 83.3492 94.5366 83.2846C94.5369 83.165 94.5646 83.0471 94.6173 82.9397C94.6701 82.8324 94.7467 82.7386 94.8412 82.6653C94.9358 82.592 95.0458 82.5412 95.1629 82.5169C95.2799 82.4925 95.4011 82.4951 95.517 82.5246C95.7127 82.516 95.9086 82.5365 96.0984 82.5854L97.9794 81.5176C97.7213 81.0728 97.4155 80.6574 97.0674 80.2788L80.5374 89.6344Z" fill="black"/>
<path opacity="0.2" d="M78.0938 92.1462C77.7299 92.0282 77.3946 91.8353 77.1096 91.58L74.1 93.29C74.0756 93.3042 74.0487 93.3134 74.0207 93.3171C73.9927 93.3207 73.9642 93.3188 73.937 93.3114C73.9098 93.304 73.8843 93.2912 73.8621 93.2738C73.8398 93.2565 73.8212 93.2348 73.8074 93.2102L71.1474 88.5476C70.8925 88.4595 70.6214 88.4284 70.3532 88.4564C70.0454 88.5172 69.7756 88.8744 69.9428 89.1366C70.0999 89.1407 70.2531 89.1864 70.3867 89.2692C70.5202 89.352 70.6294 89.4689 70.7028 89.6078C70.5389 89.7382 70.3588 89.8468 70.167 89.9308L72.447 93.9626C72.5603 94.1662 72.7131 94.3452 72.8966 94.4889C73.08 94.6326 73.2903 94.7382 73.5151 94.7994C73.7399 94.8606 73.9747 94.8763 74.2057 94.8455C74.4366 94.8147 74.6591 94.738 74.86 94.62L78.8044 92.3818L78.7588 92.3552C78.5411 92.2736 78.3191 92.2039 78.0938 92.1462Z" fill="black"/>
</g>
<path opacity="0.3" d="M60.9826 78.5764C63.3006 80.2788 65.2386 88.4564 65.4134 95.9538C65.5882 103.451 69.2134 116.094 69.6466 118.165C70.0798 120.236 69.9202 123.223 72.6106 119.065C75.301 114.908 83.1708 107.692 86.4502 110.09C89.7296 112.488 84.2082 120.547 81.2176 124.887C78.227 129.227 77.923 136.868 74.3396 141.653C70.7562 146.437 67.5186 153.661 64.0074 153.55C60.4962 153.44 37.2402 170.692 37.2402 170.692L37.6962 147.079L58.5962 112.879L60.9826 78.5764Z" fill="black" fill-opacity="0.7"/>
<path d="M88.3578 111.249C88.24 111.99 84.1474 117.412 81.742 121.471C79.3366 125.529 77.0832 132.593 76.479 133.631C75.8748 134.668 68.499 141.147 66.4774 143.857C64.4558 146.566 60.8458 147.763 57.2396 150.317C54.9216 151.958 47.6978 160.428 42.83 166.277C40.1244 169.526 38.1446 171.977 38.1446 171.977L7.02637 163.864C7.02637 163.864 9.60277 161.739 12.9924 158.874H13.0152L13.0494 158.848C18.6202 154.117 26.3836 147.44 28.5268 144.921C31.981 140.862 36.7918 136.04 36.7918 136.04C36.4992 130.405 37.0958 125.066 36.5676 123.036C36.294 121.976 35.8076 115.946 35.4276 114.091C34.5042 109.353 30.4876 104.443 30.0354 102.509C29.5832 100.575 24.2822 92.34 26.87 90.82C27.3404 90.5238 27.8996 90.4015 28.4508 90.4742C31.9468 90.9568 34.8272 99.4004 36.8108 101.551C37.6607 102.569 38.4306 103.652 39.1136 104.789C40.6792 107.27 42.2144 110.059 42.2144 110.059C42.8148 107.654 38.4562 99.085 37.2516 90.9682C36.047 82.8514 32.5928 78.4928 37.2516 77.9912C37.6344 77.9483 38.0219 77.9819 38.3916 78.09C41.671 79.0476 43.0922 85.861 45.053 92.473C45.2354 93.081 46.7288 97.4472 47.8916 100.814C48.6516 103.018 49.2596 104.793 49.2596 104.793C49.4078 100.658 48.1196 96.8126 47.9068 93.0658C47.8156 91.5648 48.2868 85.5494 47.694 79.5378C47.1848 74.4648 47.4166 72.409 49.4002 72.01C49.8251 71.9335 50.2582 71.9131 50.6884 71.9492C54.1274 72.1658 55.3472 81.3048 55.3472 84.8692C55.3472 86.9402 55.7006 90.9834 55.997 94.0158C56.2136 96.2084 56.3998 97.8728 56.3998 97.8728C56.3998 97.8728 57.0002 92.8378 56.5518 81.9774C56.4492 79.5986 56.605 77.8962 57.5398 77.2084C58.0528 76.8284 58.7938 76.7638 59.8578 77.0526C62.8636 77.8658 63.8402 89.0036 63.8402 93.214C63.8402 97.4244 66.2456 104.637 66.6978 110.314C67.15 115.991 69.1184 122.968 69.1184 122.968C69.1184 122.968 70.2318 123.42 70.9804 123.272C71.729 123.124 76.9198 115.455 76.9198 115.455C79.3366 110.208 84.041 108.615 86.6022 109.204C87.7802 109.474 88.5402 110.2 88.3578 111.249Z" fill="white"/>
<path opacity="0.4" d="M88.3579 111.249C88.2401 111.99 84.1475 117.412 81.7421 121.471C79.3367 125.529 77.0833 132.593 76.4791 133.631C75.8749 134.668 68.4991 141.147 66.4775 143.857C64.4559 146.566 60.8459 147.763 57.2397 150.317C54.9217 151.958 47.6979 160.428 42.8301 166.277C43.3659 164.156 44.5667 161.447 47.7055 158.844C53.1547 154.318 53.4815 150.769 56.4113 147.763C59.3411 144.757 64.5015 145.658 66.3559 142.063C68.2103 138.468 74.6779 135.147 76.0307 131.989C77.3835 128.831 74.6779 128.163 77.0833 124.363C79.4887 120.563 81.8219 119.639 81.4799 118.15C81.1379 116.66 80.1271 114.403 82.2133 112.522C83.5167 111.351 85.0481 109.881 86.6137 109.204C87.7803 109.474 88.5403 110.2 88.3579 111.249Z" fill="#071C4D"/>
<path opacity="0.4" d="M49.3697 129.086C48.3703 128.584 49.1721 127.585 48.4691 126.753C47.7661 125.921 46.1625 131.294 45.8091 131.313C45.4557 131.332 44.3803 128.581 43.9547 128.307C43.5291 128.033 43.2783 129.185 42.6741 131.313C42.0699 133.441 39.8507 134.52 38.5625 136.04C37.2743 137.56 29.5261 145.825 27.6223 148.93C25.7185 152.034 13.9613 158.179 13.0493 158.84C18.6201 154.117 26.3835 147.44 28.5267 144.921C31.9809 140.862 36.7917 136.04 36.7917 136.04C36.4991 130.405 37.0957 125.066 36.5675 123.036C36.2939 121.976 35.8075 115.946 35.4275 114.091C34.5041 109.353 30.4875 104.443 30.0353 102.509C29.5831 100.575 24.2821 92.34 26.8699 90.82C27.3404 90.5239 27.8996 90.4015 28.4507 90.4742C27.8617 90.8922 27.2879 91.4926 27.8237 92.3742C28.7775 93.917 29.8263 95.5396 29.8263 97.2458C29.8263 98.952 32.7333 101.354 33.8619 102.946C34.9905 104.538 33.9379 103.976 34.6903 106.157C35.4427 108.338 36.3433 107.882 36.7917 110.086C37.2401 112.29 39.7481 113.696 39.3491 116.443C38.9501 119.191 40.5499 123.014 40.5499 123.014C40.5499 123.014 41.8533 119.309 41.3783 117.314C40.9033 115.319 41.4543 112.803 40.9983 112.127C40.6183 111.519 39.5771 107.392 39.0983 104.827C40.6639 107.308 42.1991 110.097 42.1991 110.097C42.7995 107.692 38.4409 99.123 37.2363 91.0062C36.0317 82.8894 32.5775 78.5308 37.2363 78.0292C37.6191 77.9863 38.0066 78.0199 38.3763 78.128C40.3637 81.8406 38.9805 84.588 38.5397 86.1992C38.0571 87.9548 40.9299 92.4616 41.3555 95.5662C41.7355 98.4656 42.5183 98.1654 42.6209 98.1122C42.5335 98.192 41.7925 98.9482 42.2409 101.099C42.7083 103.379 46.0409 108.794 46.0409 110.306C46.0409 111.819 45.7673 114.308 45.7673 115.045C45.7673 115.782 48.4273 120.715 48.7465 122.007C49.0657 123.299 48.6211 119.518 49.3469 118.207C50.0727 116.896 50.4565 112.32 50.5515 112.567C51.8017 115.744 50.3729 129.58 49.3697 129.086Z" fill="#071C4D"/>
<path opacity="0.4" d="M51.5244 95.1292C50.6732 96.4174 50.696 106.472 49.2444 106.506C48.5414 106.506 48.1994 103.979 47.9144 100.806C48.6744 103.01 49.2824 104.785 49.2824 104.785C49.4306 100.651 48.1424 96.805 47.9296 93.0582C47.8384 91.5572 48.3096 85.5418 47.7168 79.5302C47.2076 74.4572 47.4394 72.4014 49.423 72.0024C49.841 73.3552 50.867 74.9512 51.1292 76.4332C51.4864 78.4776 50.7872 80.1686 50.1868 80.4232C49.5864 80.6778 49.4838 81.9964 50.2362 82.1902C50.9886 82.384 50.2362 91.979 50.5858 93.2102C50.9354 94.4414 52.3794 93.86 51.5244 95.1292Z" fill="#071C4D"/>
<path opacity="0.4" d="M59.3336 83.8736C57.7718 84.5614 57.6882 85.7926 57.2208 87.5596C56.7534 89.3266 57.8896 91.9068 57.2208 95.9614C56.552 100.016 58.9916 102.63 57.2208 107.168C55.45 111.705 56.2822 103.368 55.9858 99.5676C55.8837 97.7169 55.8913 95.8618 56.0086 94.012C56.2252 96.2046 56.4114 97.869 56.4114 97.869C56.4114 97.869 57.0118 92.834 56.5634 81.9736C56.4608 79.5948 56.6166 77.8924 57.5514 77.2046C59.155 78.66 60.6636 83.2884 59.3336 83.8736Z" fill="#071C4D"/>
<path d="M38.1448 171.98C38.1448 171.98 53.6298 152.889 57.2398 150.32C60.8498 147.752 64.4598 146.562 66.4776 143.86C68.4954 141.159 75.8788 134.687 76.4792 133.635C77.0796 132.582 79.3368 125.518 81.7422 121.475C84.1476 117.431 88.2402 111.975 88.358 111.253C88.8824 107.943 80.4654 107.795 76.9314 115.463C76.9314 115.463 71.7444 123.128 70.992 123.28C70.2396 123.432 69.13 122.976 69.13 122.976C69.13 122.976 67.1616 116.003 66.7094 110.322C66.2572 104.641 63.8518 97.4206 63.8518 93.2216C63.8518 89.0226 62.8752 77.8734 59.8694 77.0602C56.8636 76.247 56.4076 78.3066 56.5634 82.0002C57.0118 92.8606 56.4114 97.8956 56.4114 97.8956C56.4114 97.8956 55.3588 88.4602 55.3588 84.892C55.3588 81.3238 54.139 72.1848 50.7 71.972C47.5422 71.7706 47.1014 73.5452 47.7056 79.572C48.3098 85.5988 47.8272 91.599 47.9184 93.1C48.1426 96.8582 49.4384 100.7 49.2712 104.827C49.2712 104.827 45.361 93.5066 45.0608 92.4996C42.8834 85.12 41.3748 77.52 37.2404 77.976C32.5816 78.4776 36.0396 82.8362 37.2404 90.953C38.4412 99.0698 42.8036 107.639 42.2032 110.044C42.2032 110.044 38.597 103.497 36.7996 101.536C34.5196 99.0698 31.0768 88.3234 26.8664 90.8048C24.2786 92.3248 29.5948 100.586 30.0432 102.52C30.4916 104.454 34.512 109.36 35.4354 114.103C35.8154 115.957 36.2904 121.988 36.5754 123.048C37.1036 125.077 36.507 130.416 36.7996 136.051C36.7996 136.051 31.9888 140.862 28.5346 144.921C25.0804 148.979 7.03418 163.864 7.03418 163.864" stroke="#263238" stroke-linecap="round" stroke-linejoin="round"/>
<path d="M69.1299 122.972C69.8235 124.684 69.8235 126.599 69.1299 128.311" stroke="#263238" stroke-linecap="round" stroke-linejoin="round"/>
<path d="M70.395 123.291C70.8264 123.608 71.146 124.053 71.3079 124.564C71.4698 125.074 71.4655 125.622 71.2956 126.13" stroke="#263238" stroke-linecap="round" stroke-linejoin="round"/>
<path d="M56.4111 97.869C56.4111 97.869 57.6157 106.362 57.0875 107.939" stroke="#263238" stroke-linecap="round" stroke-linejoin="round"/>
<path d="M49.271 104.785C49.4 105.606 49.4 106.442 49.271 107.263" stroke="#263238" stroke-linecap="round" stroke-linejoin="round"/>
<path d="M42.2065 110.044C42.2065 110.044 42.4307 111.325 42.2065 111.625" stroke="#263238" stroke-linecap="round" stroke-linejoin="round"/>
<path d="M80.313 117.26C80.313 117.26 81.6734 117.998 82.118 119.065" stroke="#263238" stroke-linecap="round" stroke-linejoin="round"/>
<path d="M49.3203 81.9736C49.7613 82.0795 50.2218 82.0727 50.6594 81.9538C51.0971 81.835 51.4977 81.6078 51.8245 81.2934" stroke="#263238" stroke-linecap="round" stroke-linejoin="round"/>
<path d="M49.7803 94.1868C49.7803 94.1868 52.4859 95.0874 53.4663 94.1868" stroke="#263238" stroke-linecap="round" stroke-linejoin="round"/>
<path d="M58.5923 96.8164C58.5923 96.8164 60.3935 96.14 61.5981 96.5162" stroke="#263238" stroke-linecap="round" stroke-linejoin="round"/>
<path d="M41.3784 99.2218C41.3784 99.2218 42.8072 97.3408 43.9358 97.869" stroke="#263238" stroke-linecap="round" stroke-linejoin="round"/>
<path d="M35.5148 104.785C35.5148 104.785 34.238 105.385 33.8618 106.024" stroke="#263238" stroke-linecap="round" stroke-linejoin="round"/>
<path d="M36.7915 136.04C37.1047 135.688 37.3822 135.307 37.6199 134.9C37.8441 134.448 37.5439 129.637 37.6199 126.54" stroke="#263238" stroke-linecap="round" stroke-linejoin="round"/>
<path d="M52.562 154.979C50.7912 156.963 45.361 160.558 43.1836 162.735" stroke="#263238" stroke-linecap="round" stroke-linejoin="round"/>
<path d="M59.7174 110.044C58.8168 112.602 59.7934 115.832 59.7174 117.264C59.6414 118.697 59.3374 125.244 59.3374 125.244" stroke="#263238" stroke-linecap="round" stroke-linejoin="round"/>
<path d="M51.5244 110.044C50.3236 112.073 50.6998 114.779 51.076 116.124C51.4522 117.469 51.1178 122.964 51.1178 122.964" stroke="#263238" stroke-linecap="round" stroke-linejoin="round"/>
<path d="M38.5968 116.508C38.4972 117.831 38.76 119.157 39.3568 120.342" stroke="#263238" stroke-linecap="round" stroke-linejoin="round"/>
<path d="M46.0372 112.526C45.3608 115.007 46.2652 116.132 46.3412 116.508" stroke="#263238" stroke-linecap="round" stroke-linejoin="round"/>
<path opacity="0.3" d="M107.091 96.14L105.811 88.7072C105.754 88.377 105.765 88.0387 105.842 87.7128C105.92 87.3869 106.062 87.08 106.262 86.8106C106.461 86.5412 106.712 86.3148 107.001 86.1451C107.29 85.9754 107.61 85.8658 107.942 85.823L110.811 85.443C110.811 85.443 109.854 83.5012 112.936 77.843C116.017 72.1848 130.834 57.1558 142.066 82.403C153.299 107.65 163.563 159.098 163.563 159.098C163.563 159.098 133.243 123.789 132.278 121.98C131.312 120.171 122.082 121.254 119.95 116.402C117.819 111.549 113.342 97.7018 113.342 97.7018L109.877 98.1768C109.239 98.263 108.593 98.0991 108.074 97.7194C107.554 97.3397 107.202 96.7736 107.091 96.14Z" fill="black" fill-opacity="0.7"/>
<path d="M133.813 79.0856L127.995 80.142L119.909 81.6126L109.318 83.5392C109.115 83.5764 108.906 83.5732 108.705 83.5298C108.503 83.4863 108.311 83.4034 108.142 83.2859C107.972 83.1683 107.827 83.0184 107.715 82.8447C107.603 82.671 107.527 82.477 107.49 82.2738L105.165 69.4868C105.091 69.0767 105.183 68.6544 105.421 68.312C105.658 67.9695 106.021 67.7348 106.43 67.659L112.59 66.519L121.55 64.8926L130.925 63.1864C131.128 63.1491 131.337 63.1523 131.538 63.1957C131.74 63.2392 131.932 63.3221 132.101 63.4396C132.271 63.5572 132.416 63.7071 132.528 63.8808C132.64 64.0545 132.716 64.2485 132.753 64.4518L135.078 77.2388C135.118 77.4433 135.117 77.6537 135.075 77.8578C135.033 78.0619 134.951 78.2556 134.833 78.4275C134.715 78.5994 134.564 78.7461 134.389 78.8591C134.214 78.9721 134.018 79.0491 133.813 79.0856Z" fill="#071C4D"/>
<path opacity="0.3" d="M129.698 70.5964L127.995 80.142L119.909 81.6126C117.568 80.5828 113.707 78.7892 112.936 77.8126C112.016 76.6726 112.145 69.9542 112.59 66.519L121.55 64.8926C124.708 67.07 129.698 70.5964 129.698 70.5964Z" fill="black" fill-opacity="0.7"/>
<path opacity="0.3" d="M110.925 83.2465L109.318 83.5391C109.115 83.5764 108.906 83.5732 108.705 83.5298C108.503 83.4863 108.311 83.4034 108.142 83.2859C107.972 83.1683 107.827 83.0184 107.715 82.8447C107.603 82.671 107.527 82.477 107.49 82.2737L105.165 69.4867C105.091 69.0767 105.183 68.6544 105.421 68.3119C105.658 67.9695 106.021 67.7347 106.43 67.6589L108.034 67.3663C107.624 67.4421 107.262 67.677 107.025 68.0196C106.789 68.3622 106.698 68.7845 106.772 69.1941L109.098 81.9811C109.134 82.1844 109.211 82.3784 109.322 82.5521C109.434 82.7258 109.579 82.8757 109.749 82.9933C109.919 83.1108 110.11 83.1937 110.312 83.2372C110.514 83.2806 110.722 83.2838 110.925 83.2465Z" fill="black" fill-opacity="0.7"/>
<path d="M133.813 79.0856L127.995 80.142L119.909 81.6126L109.318 83.5392C109.115 83.5764 108.906 83.5732 108.705 83.5298C108.503 83.4863 108.311 83.4034 108.142 83.2859C107.972 83.1683 107.827 83.0184 107.715 82.8447C107.603 82.671 107.527 82.477 107.49 82.2738L105.165 69.4868C105.091 69.0767 105.183 68.6544 105.421 68.312C105.658 67.9695 106.021 67.7348 106.43 67.659L112.59 66.519L121.55 64.8926L130.925 63.1864C131.128 63.1491 131.337 63.1523 131.538 63.1957C131.74 63.2392 131.932 63.3221 132.101 63.4396C132.271 63.5572 132.416 63.7071 132.528 63.8808C132.64 64.0545 132.716 64.2485 132.753 64.4518L135.078 77.2388C135.118 77.4433 135.117 77.6537 135.075 77.8578C135.033 78.0619 134.951 78.2556 134.833 78.4275C134.715 78.5994 134.564 78.7461 134.389 78.8591C134.214 78.9721 134.018 79.0491 133.813 79.0856V79.0856Z" stroke="#263238" stroke-linecap="round" stroke-linejoin="round"/>
<path d="M132.085 62.5108L107.689 66.9917C106.837 67.1481 106.274 67.9652 106.43 68.8166L108.769 81.549C108.925 82.4005 109.742 82.9639 110.594 82.8075L134.99 78.3267C135.841 78.1703 136.405 77.3532 136.248 76.5018L133.91 63.7694C133.753 62.9179 132.936 62.3545 132.085 62.5108Z" stroke="#263238" stroke-width="0.996394" stroke-linecap="round" stroke-linejoin="round"/>
<path d="M131.402 64.0485L108.413 68.2264C108 68.3015 107.726 68.6971 107.801 69.1101L110.091 81.7097C110.166 82.1227 110.561 82.3966 110.974 82.3215L133.964 78.1436C134.377 78.0686 134.651 77.673 134.576 77.26L132.286 64.6603C132.211 64.2474 131.815 63.9734 131.402 64.0485Z" stroke="#263238" stroke-linecap="round" stroke-linejoin="round"/>
<path d="M135.42 78.793L133.824 79.0818C134.232 79.0052 134.593 78.7703 134.828 78.4285C135.062 78.0867 135.153 77.6658 135.078 77.2578L132.753 64.4708C132.716 64.2675 132.64 64.0735 132.528 63.8998C132.416 63.7261 132.271 63.5762 132.101 63.4587C131.932 63.3411 131.74 63.2582 131.538 63.2148C131.336 63.1713 131.128 63.1681 130.925 63.2054L132.532 62.9128C132.942 62.8396 133.365 62.9316 133.707 63.1687C134.049 63.4057 134.284 63.7687 134.36 64.1782L136.686 76.9652C136.759 77.3752 136.667 77.7975 136.43 78.14C136.193 78.4824 135.83 78.7172 135.42 78.793V78.793Z" stroke="#263238" stroke-linecap="round" stroke-linejoin="round"/>
<path d="M181.64 119.753L165.904 161.964C165.904 161.964 159.323 149.424 153.243 137.818C148.386 128.539 143.849 119.837 143.237 118.556C141.865 115.672 137.18 109.63 137.18 109.63C137.18 109.63 132.373 106.879 130.173 102.087C127.973 97.2952 125.552 80.1534 125.552 80.1534C125.552 80.1534 119.233 77.7746 117.724 76.7334C116.215 75.6922 114.84 66.0706 114.84 64.9724C114.84 63.8742 116.36 61.674 116.36 61.674C116.36 61.674 116.022 60.0628 117.952 58.4364C118.583 57.9184 119.282 57.49 120.031 57.1634H120.069C120.069 57.1634 119.818 53.5268 121.71 52.4666C121.801 52.4154 121.895 52.371 121.991 52.3336C123.679 51.6838 129.211 50.844 129.211 50.844C129.994 50.1567 130.904 49.631 131.89 49.2974C132.871 49.0276 138.252 50.2778 141.257 51.0188C142.466 51.3152 143.29 51.528 143.29 51.528C143.29 51.528 148.375 51.7598 149.336 52.3336C150.007 52.7732 150.62 53.2954 151.16 53.8878L151.255 53.998C151.255 53.998 155.789 54.9404 156.75 56.601C157.711 58.2616 158.122 66.5 157.438 71.8542C156.754 77.2084 157.981 86.2942 157.981 86.2942C157.981 86.2942 159.399 93.3128 160.497 95.9766C161.595 98.6404 181.64 119.753 181.64 119.753Z" fill="white"/>
<path opacity="0.4" d="M153.243 137.818C148.386 128.539 143.849 119.837 143.237 118.556C141.865 115.672 137.18 109.63 137.18 109.63C137.18 109.63 132.373 106.879 130.173 102.087C127.973 97.2951 125.552 80.1533 125.552 80.1533C125.552 80.1533 119.233 77.7745 117.724 76.7333C116.215 75.6921 114.84 66.0705 114.84 64.9723C114.84 63.8741 116.36 61.674 116.36 61.674C116.36 61.674 116.022 60.0627 117.952 58.4363C117.952 58.8695 117.952 59.5992 117.952 60.7467C117.906 62.9242 120.471 76.0531 121.106 75.6541C121.741 75.2551 122.721 74.2937 122.463 73.4464C122.463 73.4464 121.22 68.3505 120.046 57.1633H120.084C120.084 57.1633 119.833 53.5268 121.725 52.4666C121.4 53.254 121.191 54.0849 121.106 54.9327C121.064 56.7035 123.169 71.877 123.994 72.2608C124.819 72.6446 126.909 70.623 126.909 70.623C126.909 70.623 126.194 66.3176 126.449 64.4822C126.449 64.4822 132.806 68.3582 132.996 72.7586C133.015 73.2411 134.235 80.1381 134.235 80.1381C134.235 80.1381 128.767 90.5502 134.349 100.05C134.349 100.05 131.51 98.3478 130.834 95.6422C130.834 95.6422 130.009 103.599 135.873 107.802C135.873 107.802 140.079 103.672 144.233 103.147C144.233 103.147 144.309 103.421 141.527 105.613C138.746 107.806 138.369 108.783 138.369 108.783C138.369 108.783 141.379 105.743 143.784 105.613C143.784 105.613 141.303 108.482 141.379 109.083C141.455 109.683 148.474 121.684 151.027 130.055C152.068 133.551 152.779 136.074 153.243 137.818Z" fill="#071C4D"/>
<path opacity="0.4" d="M133.536 58.178C133.536 58.178 135.561 59.698 136.161 58.178C136.506 57.3647 136.725 56.5036 136.811 55.6244C136.811 55.6244 137.59 55.2672 138.331 57.1444C139.072 59.0216 146.501 59.5004 148.242 60.4618C149.982 61.4232 150.674 60.4618 150.674 60.4618C151.079 60.795 151.357 61.2578 151.461 61.7721C151.565 62.2865 151.488 62.8209 151.244 63.2852C150.4 65.0294 152.79 65.1852 153.717 63.9008C154.645 62.6164 153.926 67.5754 151.635 68.0808C151.635 68.0808 151.7 70.2468 150.225 71.7326H151.475C151.475 71.7326 148.147 74.3736 147.261 74.518C146.376 74.6624 150.556 76.1406 149.781 76.4522C149.005 76.7638 146.809 76.7372 146.809 76.7372C146.809 76.7372 148.23 77.7214 148.242 78.3712C148.253 79.021 147.569 79.5112 147.261 78.9678C146.953 78.4244 144.499 70.642 143.275 67.7654C142.051 64.8888 136.997 62.6126 133.536 58.178Z" fill="#071C4D"/>
<path opacity="0.4" d="M151.156 53.8612C146.892 52.6946 141.173 51.034 141.173 51.034L141.253 50.9922C142.462 51.2886 143.286 51.5014 143.286 51.5014C143.286 51.5014 148.371 51.7332 149.332 52.307C150.003 52.7467 150.615 53.2688 151.156 53.8612Z" fill="#071C4D"/>
<path d="M145.16 60.5682C141.451 59.8082 138.802 62.9774 138.802 62.9774C138.802 62.9774 142.488 66.3138 143.305 67.7464C144.122 69.179 145.479 74.0088 145.479 74.0088C147.033 74.2596 149.898 72.656 150.586 68.4C151.274 64.144 148.849 61.3244 145.16 60.5682Z" fill="#071C4D"/>
<path d="M165.904 161.964C165.904 161.964 144.624 121.44 143.237 118.556C141.85 115.672 137.18 109.63 137.18 109.63C137.18 109.63 132.373 106.879 130.173 102.087C127.973 97.2952 125.552 80.1534 125.552 80.1534C125.552 80.1534 119.233 77.7746 117.724 76.7334C116.215 75.6922 114.84 66.0706 114.84 64.9724C114.84 63.8742 116.36 61.674 116.36 61.674C116.36 61.674 115.813 59.071 120.069 57.1444C120.069 57.1444 119.795 53.1582 121.991 52.3146C123.679 51.6648 129.211 50.825 129.211 50.825C129.994 50.1377 130.904 49.6121 131.89 49.2784C133.262 48.8984 143.29 51.509 143.29 51.509C143.29 51.509 148.375 51.7408 149.336 52.3146C150.039 52.7784 150.679 53.3315 151.24 53.96C151.24 53.96 155.773 54.9024 156.735 56.563C157.696 58.2236 158.107 66.462 157.423 71.8162C156.739 77.1704 157.966 86.2562 157.966 86.2562C157.966 86.2562 159.383 93.2748 160.482 95.9386C161.58 98.6024 181.64 119.753 181.64 119.753" stroke="#263238" stroke-linecap="round" stroke-linejoin="round"/>
<path d="M147.888 79.5948C147.888 79.5948 146.927 79.3896 145.692 74.8562C144.457 70.3228 144.13 68.2024 141.569 65.5158C139.752 63.6158 135.595 60.5112 133.536 58.178C131.476 55.8448 129.2 53.96 127.421 55.404C126 56.544 125.073 59.5042 126.323 64.0718C127.931 69.939 133 72.732 133 72.732L134.239 80.1116C134.239 80.1116 128.862 90.8808 134.923 101.046" stroke="#263238" stroke-linecap="round" stroke-linejoin="round"/>
<path d="M138.783 62.9774C138.783 62.9774 141.443 59.812 145.141 60.5682C148.838 61.3244 151.24 64.1402 150.567 68.4C149.894 72.6598 147.014 74.2596 145.46 74.0088" stroke="#263238" stroke-linecap="round" stroke-linejoin="round"/>
<path d="M129.2 50.8174C128.644 52.2134 128.217 53.657 127.923 55.1304" stroke="#263238" stroke-linecap="round" stroke-linejoin="round"/>
<path d="M126.95 65.6982C126.95 65.6982 127.269 70.3912 127.931 71.8314C128.592 73.2716 129.69 74.442 130.169 76.2964C130.648 78.1508 130.72 81.035 130.857 81.4492C130.993 81.8634 131.788 81.9698 131.788 81.9698C132.928 81.9964 133.387 81.4036 134.045 80.4992" stroke="#263238" stroke-linecap="round" stroke-linejoin="round"/>
<path d="M120.08 57.1368C120.08 57.1368 121.109 67.1612 121.934 71.421C122.759 75.6808 124.214 76.2964 126.604 77.672C128.994 79.0476 130.313 81.852 130.522 82.2738C130.731 82.6956 131.514 82.7412 131.514 82.7412C131.974 82.7029 132.417 82.5505 132.803 82.2976C133.189 82.0448 133.506 81.6996 133.725 81.2934" stroke="#263238" stroke-linecap="round" stroke-linejoin="round"/>
<path d="M116.364 61.6664C116.105 62.0654 118.309 72.2456 119.457 75.1982C120.604 78.1508 120.734 78.6182 123.77 79.4542C126.806 80.2902 129.113 81.681 129.933 81.1908" stroke="#263238" stroke-linecap="round" stroke-linejoin="round"/>
<path d="M137.45 56.0348C137.45 56.0348 139.027 59.812 137.986 62.2972" stroke="#263238" stroke-linecap="round" stroke-linejoin="round"/>
<path d="M143.286 51.5014C145.87 52.5231 148.529 53.3451 151.24 53.96" stroke="#263238" stroke-linecap="round" stroke-linejoin="round"/>
<path d="M153.728 64.5544C153.728 64.5544 152.52 66.7622 150.688 67.2373" stroke="#263238" stroke-linecap="round" stroke-linejoin="round"/>
<path d="M150.685 62.149C150.685 62.149 150.252 63.289 149.792 63.6044" stroke="#263238" stroke-linecap="round" stroke-linejoin="round"/>
<path d="M152.205 71.2158C152.205 71.2158 149.458 73.2944 146.82 73.834" stroke="#263238" stroke-linecap="round" stroke-linejoin="round"/>
<path d="M145.691 74.86C145.691 74.86 146.831 76.3002 149.792 76.437" stroke="#263238" stroke-linecap="round" stroke-linejoin="round"/>
<path d="M136.8 68.5558C136.8 68.5558 139.49 65.9718 141.025 66.329" stroke="#263238" stroke-linecap="round" stroke-linejoin="round"/>
<path d="M142.066 69.0802C142.066 69.0802 140.03 70.6002 139.657 70.6002" stroke="#263238" stroke-linecap="round" stroke-linejoin="round"/>
<path d="M121.094 77.14C121.094 77.14 121.771 77.2654 122.299 76.4484" stroke="#263238" stroke-linecap="round" stroke-linejoin="round"/>
<path d="M123.5 73.4388C123.5 73.4388 125.134 72.428 126.202 72.2342" stroke="#263238" stroke-linecap="round" stroke-linejoin="round"/>
<path d="M137.894 107.715C138.232 107.415 141.39 104.861 143.343 103.957" stroke="#263238" stroke-linecap="round" stroke-linejoin="round"/>
<path d="M141.99 106.506C141.766 106.438 139.973 108.315 139.026 109.068" stroke="#263238" stroke-linecap="round" stroke-linejoin="round"/>
<path d="M142.88 112.073C142.88 112.073 148.895 123.473 150.248 128.033" stroke="#263238" stroke-linecap="round" stroke-linejoin="round"/>
<path d="M160.497 95.9538C161.006 98.7544 162.659 100.818 163.563 101.935" stroke="#263238" stroke-linecap="round" stroke-linejoin="round"/>
<path opacity="0.4" d="M141.534 61.6664C140.66 62.206 141.58 63.9692 142.066 64.8698C142.553 65.7704 144.726 67.203 145.179 68.5558C145.631 69.9086 148.488 69.8706 149.359 68.5558C150.229 67.241 150.119 64.6152 147.747 62.6164C145.376 60.6176 142.777 60.9064 141.534 61.6664Z" fill="white"/>
<path d="M124.849 137.397C120.979 136.739 117 137.412 113.562 139.305C110.123 141.199 107.428 144.202 105.915 147.824C104.402 151.446 104.161 155.474 105.231 159.251C106.301 163.028 108.619 166.331 111.808 168.621" stroke="#263238" stroke-linecap="round" stroke-linejoin="round"/>
<path d="M132.088 140.425C130.477 139.262 128.677 138.385 126.768 137.834" stroke="#263238" stroke-linecap="round" stroke-linejoin="round"/>
<path d="M130.34 169.7C132.682 168.404 134.693 166.583 136.214 164.38C137.736 162.177 138.727 159.653 139.11 157.003C139.494 154.354 139.259 151.651 138.424 149.108C137.59 146.564 136.178 144.248 134.3 142.34" stroke="#263238" stroke-linecap="round" stroke-linejoin="round"/>
<path d="M131.18 175.18L132.214 176.092L130.603 170.571" stroke="#263238" stroke-linecap="round" stroke-linejoin="round"/>
<path d="M119.02 171.631C121.575 172.069 124.196 171.928 126.688 171.217L129.96 174.105" stroke="#263238" stroke-linecap="round" stroke-linejoin="round"/>
<path d="M115.038 170.453C115.686 170.732 116.351 170.972 117.029 171.171" stroke="#263238" stroke-linecap="round" stroke-linejoin="round"/>
<path d="M123.306 146.068C125.459 146.436 127.395 147.596 128.735 149.321C130.075 151.045 130.721 153.208 130.546 155.385C130.37 157.561 129.387 159.593 127.788 161.081C126.19 162.569 124.092 163.404 121.909 163.423C119.725 163.442 117.614 162.642 115.99 161.183C114.366 159.723 113.348 157.708 113.135 155.535C112.923 153.361 113.531 151.187 114.841 149.44C116.151 147.693 118.067 146.5 120.213 146.095" stroke="#263238" stroke-linecap="round" stroke-linejoin="round"/>
<path d="M120.213 164.228C117.682 163.797 115.426 162.378 113.941 160.284C112.456 158.19 111.863 155.591 112.294 153.06" stroke="#263238" stroke-linecap="round" stroke-linejoin="round"/>
<path d="M130.945 157.974C130.349 159.622 129.317 161.077 127.959 162.186C126.601 163.294 124.968 164.013 123.234 164.266" stroke="#263238" stroke-linecap="round" stroke-linejoin="round"/>
<path d="M113.039 150.643C114.02 148.51 115.743 146.806 117.887 145.848C120.03 144.891 122.449 144.745 124.693 145.438C126.936 146.131 128.852 147.615 130.082 149.615C131.312 151.615 131.774 153.994 131.381 156.309" stroke="#263238" stroke-linecap="round" stroke-linejoin="round"/>
<path d="M127.65 151.194L127.76 151.077" stroke="#263238" stroke-width="2" stroke-linecap="round" stroke-linejoin="round"/>
<path d="M126.1 152.866L126.871 152.034" stroke="#263238" stroke-width="2" stroke-linecap="round" stroke-linejoin="round"/>
<path d="M116.633 154.094L120.361 159.049L125.423 153.596" stroke="#263238" stroke-width="2" stroke-linecap="round" stroke-linejoin="round"/>
</svg>
